<svg width="752" height="136" viewBox="0 0 752 136" fill="none" xmlns="http://www.w3.org/2000/svg">
<path d="M106.164 30.8803C102.692 31.5082 101.236 34.6027 100.429 37.7197C99.4657 41.5318 99.0177 44.9179 102.535 47.6088C97.5392 43.3033 100.474 33.0779 106.164 30.8803ZM102.535 47.5863C103.524 48.458 104.747 49.0195 106.052 49.2009C104.773 48.9363 103.57 48.3842 102.535 47.5863ZM91.0874 26.7318C91.4906 26.5076 91.8042 26.3506 92.2075 26.1712C91.7 26.3231 91.2278 26.5746 90.8185 26.9112L91.0874 26.7318ZM82.1265 34.6027C79.0574 40.4106 79.2142 48.8645 84.6132 53.327C79.4831 46.5997 80.7376 37.3609 85.9125 31.1942C84.3786 31.9768 83.0798 33.153 82.1489 34.6027H82.1265ZM90.3929 27.3148L90.8185 26.9112C89.0683 28.1329 87.4603 29.547 86.0245 31.127C87.7774 30.2346 89.285 28.9257 90.4153 27.3148H90.3929ZM88.1527 17.9415C88.7575 18.076 89.3848 18.2554 89.9448 18.4348C89.1832 17.6724 89.34 17.4257 88.3991 16.8203C87.6969 16.4252 86.9428 16.1308 86.1589 15.9457C85.2935 15.6871 84.3961 15.5512 83.493 15.5421C80.6124 15.6434 77.818 16.5525 75.4283 18.1657C70.0783 21.1214 65.6625 25.5183 62.6815 30.8579C60.038 35.6342 58.0218 42.2942 59.4556 47.7433C60.2669 50.6347 61.9763 53.1927 64.3363 55.0471C66.6964 56.9015 69.5846 57.9562 72.5832 58.0585C70.1783 57.8667 67.8693 57.0305 65.8985 55.6377C63.9277 54.245 62.3677 52.3469 61.3822 50.1427C59.6511 45.0084 59.8907 39.413 62.0542 34.4457C66.1762 23.8839 76.3468 15.5421 88.1527 17.9415ZM156.255 79.6082C158.699 80.7722 161.25 81.6959 163.872 82.3663C165.238 82.7924 168.352 84.8554 169.271 82.3663C166.899 81.6018 164.472 81.0171 162.012 80.6173C159.732 79.6922 157.591 78.4545 155.65 76.9397C151.17 74.1142 146.219 71.0421 144.449 65.7276C146.062 71.7597 151.08 76.4239 156.255 79.5409V79.6082ZM143.844 68.9566C142.35 67.4272 140.772 65.9824 139.117 64.6288C141.627 66.6694 142.478 70.2797 143.239 73.2397C143.586 74.9581 143.833 76.6951 143.979 78.4421C144.18 80.1239 144.763 81.6936 145.099 83.353C145.498 80.8929 145.619 78.3954 145.457 75.9082C145.3 73.1724 145.704 71.087 143.844 68.8894V68.9566ZM150.072 60.9512C150.072 60.4803 148.706 59.0451 148.414 58.5742C147.5 57.045 146.792 55.4012 146.309 53.6857C147.456 58.6557 150.442 63.0062 154.665 65.8621C156.25 67.1603 158.152 68.0118 160.175 68.3288C161.331 68.659 162.506 68.9211 163.693 69.1136C164.76 69.0812 165.82 68.9231 166.851 68.6427C166.291 67.6112 164.611 68.6427 163.513 68.6427C161.463 68.3554 159.454 67.8208 157.532 67.0506C154.575 65.6424 152.013 63.5239 150.072 60.8839V60.9512ZM150.744 44.2003C150.475 45.2318 150.005 46.2633 149.758 47.1379C150.205 46.1791 150.536 45.1703 150.744 44.133V44.2003ZM149.646 40.1639C148.28 39.8051 146.779 40.59 145.412 40.59C148.034 40.59 151.439 40.59 150.744 44.2003C151.069 43.4957 151.138 42.6994 150.937 41.9496C150.737 41.1999 150.28 40.5442 149.646 40.0966V40.1639ZM140.574 42.4063C136.474 44.5142 133.651 50.367 132.33 54.6051C131.812 55.9205 131.633 57.3452 131.809 58.748C131.985 60.1509 132.511 61.4868 133.338 62.633C133.666 63.0073 134.073 63.304 134.53 63.5015C134.987 63.6991 135.482 63.7927 135.979 63.7756C136.476 63.7584 136.963 63.6309 137.405 63.4023C137.847 63.1737 138.233 62.8497 138.535 62.4536C137.961 62.7105 137.336 62.8297 136.708 62.8016C136.08 62.7735 135.468 62.5989 134.919 62.2917C134.371 61.9846 133.902 61.5533 133.549 61.0325C133.197 60.5116 132.971 59.9156 132.89 59.2918C133.038 56.619 133.7 53.9999 134.839 51.5779C135.614 49.141 136.938 46.915 138.709 45.072C140.48 43.229 142.651 41.8182 145.054 40.9488C143.463 40.9799 141.911 41.4535 140.574 42.3167V42.4063ZM156.188 114.366C156.036 114.273 155.862 114.223 155.684 114.223C155.506 114.223 155.331 114.273 155.18 114.366C155.508 114.466 155.859 114.466 156.188 114.366ZM155.314 111.54L156.882 111.406C156.635 111.29 156.363 111.236 156.09 111.248C155.817 111.259 155.551 111.337 155.314 111.473V111.54ZM166.986 115.778L167.568 116.339C167.447 116.089 167.24 115.89 166.986 115.778ZM179.867 122.618C175.743 122.137 171.685 121.197 167.77 119.815C164.849 119.044 162.035 117.914 159.391 116.451C159.391 116.451 157.375 115.554 157.398 115.554C156.367 115.061 155.337 114.635 154.329 114.074C152.581 113.155 150.543 112.841 148.885 111.832C146.757 110.823 144.404 109.971 142.164 109.118C140.842 108.603 139.543 108.087 138.266 107.459C137.323 106.865 136.325 106.362 135.287 105.957C135.668 108.76 136.564 111.966 134.839 114.545C133.557 116.171 131.84 117.4 129.888 118.088C127.44 119.476 124.818 120.532 122.092 121.228C119.334 121.591 116.531 121.401 113.848 120.667C107.956 119.232 102.154 117.55 96.3743 115.734C93.5292 114.837 90.6617 113.94 87.7494 113.222C86.5645 112.828 85.34 112.565 84.0979 112.437C83.0786 112.598 82.0689 112.815 81.0736 113.088C82.6418 116.653 80.1327 120.286 78.2061 123.089C77.2913 124.402 76.1062 125.503 74.7305 126.319C73.3549 127.135 71.8207 127.647 70.231 127.82C67.0102 127.93 63.8135 127.228 60.9341 125.78C57.7082 124.591 54.2135 123.537 51.01 122.708C44.2894 120.801 37.2103 119.523 30.4448 121.654C26.2914 122.966 22.4441 125.101 19.1318 127.932C17.1632 130.205 15.6429 132.83 14.6514 135.669C15.0098 133.426 14.965 130.287 16.3315 128.358C17.349 127.25 18.4581 126.23 19.647 125.309C21.437 123.617 23.3963 122.114 25.494 120.824C34.4548 114.097 45.6559 116.989 55.3112 120.981C59.9708 122.909 65.4593 126.452 70.679 125.466C71.8666 125.293 73.004 124.87 74.0159 124.225C75.0277 123.579 75.891 122.726 76.5484 121.721C77.9149 119.478 77.1756 116.967 76.75 114.523C76.1003 115.218 75.4731 115.958 74.8458 116.765C74.5069 115.424 74.4459 114.027 74.6666 112.661C74.8123 112.018 75.1221 111.424 75.5658 110.937C76.0095 110.449 76.5719 110.086 77.198 109.881C77.7357 109.769 78.2957 110.128 78.811 109.881C79.5727 110.643 81.5889 110.352 82.6642 110.06C83.6148 109.771 84.6201 109.71 85.5988 109.881C89.7199 110.438 93.7832 111.361 97.7408 112.639C101.818 113.895 105.828 115.33 109.928 116.518C113.601 117.932 117.539 118.522 121.465 118.245C123.077 118.04 124.616 117.447 125.95 116.518C127.284 115.588 128.373 114.35 129.126 112.908C129.919 111.246 130.354 109.435 130.403 107.594C130.294 106.615 130.378 105.625 130.649 104.678C131.949 101.786 135.13 102.436 137.37 102.885C138.7 103.059 139.993 103.446 141.201 104.028L140.91 103.894C143.15 104.768 145.39 105.71 147.496 106.786C150.767 108.468 154.373 109.836 157.554 111.585C161.895 113.779 166.433 115.559 171.108 116.9H170.772C172.138 117.057 173.482 117.662 174.849 117.931C176.629 118.375 178.442 118.675 180.27 118.828C182.593 118.907 184.919 118.862 187.237 118.694C188.312 118.694 189.186 118.29 190.261 118.2H189.97C192.3 117.756 194.561 117.002 196.691 115.958C199.609 114.303 201.835 111.652 202.963 108.491C202.952 108.439 202.952 108.385 202.963 108.334C203.378 107.287 203.435 106.133 203.124 105.051C202.813 103.969 202.153 103.02 201.247 102.354C200.34 101.688 199.239 101.341 198.115 101.368C196.99 101.395 195.907 101.794 195.033 102.503C193.532 103.669 192.009 104.746 190.553 105.934C185.109 110.083 178.388 109.903 171.914 108.67C163.646 106.819 155.747 103.589 148.549 99.1173C144.74 96.8748 141.022 94.6324 137.213 92.39C135.898 91.5974 134.528 90.9005 133.114 90.3045C132.471 90.0602 131.78 89.9672 131.096 90.0329C130.411 90.0985 129.751 90.321 129.166 90.6831C128.582 91.0451 128.088 91.5371 127.723 92.1209C127.359 92.7046 127.134 93.3645 127.065 94.0494C126.259 98.9154 121.263 102.862 116.626 104.14C110.488 105.845 102.983 104.611 97.0239 102.638H97.4496C95.8548 102.297 94.3361 101.667 92.9691 100.777C90.1685 99.2142 87.273 97.8287 84.2995 96.6282C78.3127 94.1077 71.7542 93.2628 65.3249 94.1839C65.8331 95.8179 66.0022 97.5386 65.8219 99.2403C65.6416 100.942 65.1158 102.589 64.2766 104.08C63.4375 105.571 62.3027 106.875 60.9421 107.911C59.5814 108.947 58.0235 109.694 56.3641 110.105C50.1811 111.473 43.9533 107.571 38.4424 105.396C34.4205 103.875 30.1515 103.115 25.8524 103.154C19.5346 102.876 13.2631 104.351 7.7291 107.414C5.48889 108.872 2.91265 110.083 0.560425 111.563C0.887908 109.873 1.3601 108.215 1.97176 106.607C2.55421 105.441 3.67432 105.082 4.79442 104.477C5.79418 103.809 6.84255 103.216 7.93072 102.705C7.78824 102.734 7.6518 102.787 7.52748 102.862C9.7185 100.932 12.302 99.5015 15.0994 98.6688C16.83 98.1426 18.5971 97.7454 20.3863 97.4803C21.2824 97.3233 22.6265 97.4803 23.209 97.3457C23.9538 97.2708 24.7043 97.2708 25.4492 97.3457C30.9153 97.1215 36.1126 99.1397 41.1306 101.001C42.6764 101.584 44.2893 102.032 45.7679 102.75C46.888 103.266 47.7841 104.095 48.8594 104.678C51.9509 106.36 58.7387 107.459 59.254 102.436C59.5004 100.194 58.5147 98.1306 58.6491 95.9106C58.665 95.2906 58.7476 94.6741 58.8955 94.0718C59.0299 93.6233 59.7244 92.7936 59.7244 92.4348C59.7244 92.076 59.2988 91.65 59.1644 91.4033C64.2946 89.6437 69.7309 88.9568 75.1371 89.3851C81.9883 90.7014 88.6232 92.9656 94.8509 96.1124C98.8945 98.0273 103.173 99.3996 107.575 100.194C110.567 100.872 113.696 100.614 116.536 99.4536C117.811 98.7706 118.918 97.8129 119.778 96.6496C120.638 95.4862 121.23 94.1462 121.509 92.7263L117.343 93.1748C120.232 89.4524 122.786 85.6627 127.916 85.0797C134.906 84.3397 141.022 89.3403 146.645 92.7039C150.005 94.6997 153.365 96.673 156.86 98.4894C160.036 100.349 163.44 101.789 166.986 102.772C173.904 104.063 181.054 102.676 186.991 98.893C191.891 95.5458 195.372 90.4945 196.758 84.7209C197.385 82.1421 197.094 78.1282 193.734 77.6124C191.494 77.2312 188.469 79.8548 186.319 78.4421C185.311 77.8591 184.706 76.9621 183.563 76.536C182.459 76.2279 181.325 76.0399 180.181 75.9754C177.94 75.6167 175.476 74.9215 173.124 74.4506C170.772 73.9797 168.263 73.5088 165.843 72.9482C163.527 72.5637 161.237 72.0319 158.988 71.356C156.748 70.4815 154.306 70.1003 152.156 69.1136C151.125 68.6203 150.184 67.9924 149.176 67.4767C147.914 67.0264 146.705 66.4399 145.569 65.7276C144.606 64.7436 143.897 63.5382 143.507 62.2169C143.116 60.8956 143.055 59.4986 143.329 58.1482C146.129 60.9736 148.661 64.4045 152.29 66.1985C154.854 67.5192 157.521 68.6292 160.265 69.5173C165.063 71.1329 169.996 72.3112 175.006 73.0379C178.199 73.1146 181.386 73.3767 184.549 73.8227C187.08 74.0694 189.589 74.3609 192.098 74.7421C189.948 73.7577 187.985 72.4071 186.296 70.7506C185.042 69.8985 183.563 69.4948 182.286 68.6203C180.985 67.7395 179.614 66.9671 178.187 66.3106C175.633 65.1221 172.989 64.0682 170.346 63.1263C167.035 62.0167 163.67 61.0737 160.265 60.3009C159.021 60.3876 157.786 60.0388 156.77 59.3142C156.479 59.09 153.88 56.9597 154.104 56.5112C154.329 56.0627 155.919 57.767 156.345 58.036C157.025 58.6118 157.778 59.0944 158.585 59.4712C159.796 59.8279 161.032 60.0976 162.281 60.2785C164.835 60.8615 167.456 61.3548 169.965 61.9827C175.385 63.5273 180.543 65.8782 185.266 68.9566C187.506 70.347 189.343 72.4997 191.695 73.7106C193.277 74.4859 194.71 75.5333 195.929 76.8051C197.475 78.0833 198.998 79.4063 200.41 80.7294C200.41 80.5948 200.41 80.4379 200.41 80.2809C201.23 81.5797 202.286 82.713 203.524 83.6221C205.721 85.3072 207.468 87.5105 208.609 90.0354C208.273 89.3627 207.937 88.7348 207.534 88.0845C210.533 92.8946 211.613 98.659 210.558 104.23C207.87 118.851 193.286 124.143 180.024 122.573L179.867 122.618ZM101.258 55.816C101.989 55.5234 102.737 55.2762 103.498 55.076C102.696 55.2605 101.909 55.508 101.146 55.816H101.258ZM36.0902 13.21C40.2524 7.33692 46.2889 3.05812 53.2054 1.07847C60.15 -0.782745 66.9379 0.0918008 73.8825 1.25786C80.3568 2.24453 87.8839 4.48695 93.0587 8.52332C94.6269 9.75665 96.3742 10.7657 97.92 12.0663C99.4657 13.367 102.4 15.6318 102.714 17.5154H102.356C104.53 19.6507 106.987 21.4767 109.659 22.9421C113.228 25.0855 116.976 26.9162 120.86 28.4136C126.572 30.656 134.57 32.8985 139.566 28.167C141.772 26.1185 143.084 23.2829 143.217 20.2736C143.18 18.8245 143.053 17.379 142.836 15.9457C142.915 14.9773 142.746 14.0046 142.343 13.1203C141.642 12.474 140.894 11.8818 140.103 11.3488C139.588 10.8554 139.095 10.2948 138.602 9.82392C137.631 8.82091 136.443 8.05384 135.13 7.5815C133.778 7.11067 132.338 6.94886 130.915 7.10796C129.492 7.26705 128.123 7.74301 126.908 8.50089C124.31 10.1379 122.002 13.4791 123.234 16.6185C123.531 17.3044 123.968 17.9204 124.517 18.4265C125.067 18.9326 125.716 19.3175 126.424 19.5564C127.131 19.7953 127.881 19.8827 128.624 19.8131C129.368 19.7436 130.088 19.5184 130.739 19.1524C128.768 21.776 125.923 21.3948 123.772 19.1524C122.915 18.1869 122.353 16.9947 122.154 15.7182C121.956 14.4418 122.128 13.135 122.652 11.9542C124.399 7.28998 130.829 6.0118 135.197 6.6621C140.03 7.5442 144.364 10.1888 147.361 14.0845C149.122 15.9174 150.225 18.2836 150.498 20.8118C150.421 23.5619 149.336 26.1876 147.451 28.1894C146.31 30.1284 144.612 31.6786 142.578 32.6385C140.544 33.5983 138.269 33.9233 136.048 33.5712C130.452 32.9312 124.963 31.5668 119.717 29.5124C114.552 27.5961 109.603 25.1382 104.954 22.1797C103.677 21.4173 102.557 20.4306 101.28 19.6682C100.852 19.4046 100.383 19.2151 99.8914 19.1076C99.757 19.1076 99.6002 19.6233 99.4433 19.5785C98.8385 19.5785 98.032 18.4124 97.2031 18.076C96.3742 17.7397 95.0749 17.4257 93.9996 16.9773C92.9243 16.5288 92.1179 15.9906 91.0874 15.6991C90.1254 15.4638 89.1988 15.1018 88.3319 14.6227C87.5254 14.107 86.9206 13.367 86.0917 12.896C84.017 11.98 81.845 11.3029 79.6175 10.8779C77.2565 10.0624 74.8377 9.42529 72.3816 8.9718C67.823 8.23287 63.1541 8.5897 58.7604 10.0128C54.3667 11.436 50.374 13.8846 47.112 17.1566C35.6197 29.3779 39.4729 50.793 54.3927 58.3051C58.8972 60.2404 63.6589 61.5095 68.5284 62.0724C71.0998 62.6597 73.7319 62.9383 76.3692 62.9021C78.9941 62.6705 81.5859 62.1517 84.0979 61.3548C86.3381 60.727 87.4806 59.1124 90.0121 58.933C91.8999 58.7998 93.7498 58.3368 95.4782 57.5651C99.9679 55.966 104.692 55.1249 109.457 55.076C107.463 54.6503 105.402 54.6503 103.409 55.076C106.297 54.2956 109.347 54.3467 112.208 55.2233C115.069 56.0999 117.625 57.7666 119.583 60.0318C120.5 60.9677 121.217 62.0805 121.69 63.3025C122.164 64.5246 122.385 65.8303 122.338 67.1403C121.752 69.8186 120.236 72.2022 118.06 73.8676C116.437 75.3825 114.433 76.427 112.262 76.8891C110.092 77.3513 107.837 77.2138 105.738 76.4912C104.543 76.1224 103.467 75.4421 102.621 74.5201C101.774 73.598 101.188 72.4674 100.922 71.2439C100.858 70.6819 100.924 70.1128 101.114 69.5802C101.304 69.0476 101.614 68.5658 102.02 68.1718C102.445 67.7233 103.274 66.8263 103.633 67.7009C104.17 68.9566 101.93 70.1003 102.557 71.6027C103.184 73.1051 107.038 75.213 108.785 75.7288C114.005 77.2536 116.738 73.1276 117.41 68.6876C118.239 63.1936 115.17 60.7942 110.376 58.8657C104.999 56.6233 99.4882 58.507 94.2012 60.1215C91.7359 60.879 89.2207 61.4634 86.6741 61.8706C84.1203 62.2966 81.5665 63.3506 79.0126 64.0009C73.1133 65.733 66.9178 66.2142 60.8221 65.4136L62.3902 66.8488C56.1401 64.0457 49.5762 61.8257 43.8189 58.0585C40.6987 56.2143 37.9054 53.8653 35.5525 51.107C33.0751 47.8792 31.408 44.1033 30.6913 40.0966C29.0559 30.9924 30.4448 20.6997 35.9782 13.0979L36.0902 13.21Z" fill="#111111"/>
<path d="M222.413 48.6898L229.716 23.6396H233.914L235.496 24.013L236.79 24.7599L238.256 25.2483L246.882 26.3112H288.89L296.02 25.3058L297.544 24.9323L300.247 23.7545H304.991L312.323 48.7185H306.573C306.338 48.6657 306.117 48.5608 305.928 48.4116C305.739 48.2625 305.586 48.0728 305.48 47.8567L305.02 46.4778L301.57 40.1003L297.918 35.8199L296.854 34.9294L294.295 33.5505L291.42 32.545L288.142 31.9418L276.497 31.7694V107.494L277.015 110.942L277.877 113.814L278.625 115.05L279.717 115.94L280.983 116.658L284.03 117.434L287.74 117.693V123.065H246.796V117.664H249.671L252.949 116.946L254.329 116.342L255.421 115.538L256.313 114.446L256.945 113.182L257.722 110.137L258.153 106.518V31.8269H247.629L243.92 32.3727L241.045 33.3207L238.429 34.6134L235.381 37.4861L231.384 43.2316L229.026 48.6036L222.413 48.6898Z" fill="#111111"/>
<path d="M370.059 68.1094V57.7963L368.506 59.8359L368.017 61.1574L367.73 62.5363V64.2025L367.96 65.8112L368.362 67.1327L369.081 68.1094L369.972 69.0574L370.059 68.1094ZM358.558 29.1265V23.381H430.727L430.957 23.6683L432.855 47.6843L426.73 48.2876V48.029L424.775 40.7323L422.561 36.4519L420.635 34.3548L419.025 33.292L416.149 32.2003L408.214 30.8501L393.837 30.7065L391.537 30.965L389.812 31.913L389.237 32.6887L388.748 34.8432V67.6498L389.352 67.937L403.728 61.301L408.012 60.2381L411.635 60.5829L413.648 61.1861L416.523 62.3927L419.399 64.7196L420.031 65.4665L421.526 67.8796L422.561 70.7523V73.2803L422.159 75.5785L421.411 77.3308L420.232 78.997L417.53 81.5538L415.201 82.9327L414.798 82.0421L415.201 81.209L416.696 80.1174L418.737 78.1639L419.111 77.2734L419.571 75.4636L418.967 74.3432L418.133 73.9123L416.034 73.4239H414.769L393.866 81.7836L388.662 83.2199V101.634L389.237 106.403L390.329 110.511L390.732 111.459L391.825 112.953L393.377 114.073L395.275 114.877L397.431 115.28H410.111L420.405 113.671L424.286 112.349L426.73 110.741L429.807 107.293L432.682 102.324L435.069 96.7505C435.101 96.5996 435.174 96.4606 435.281 96.349C435.388 96.2375 435.523 96.1576 435.673 96.1185L441.423 97.6698L435.845 120.652L435.558 122.978L434.551 123.352H358.586V118.842L358.874 117.779L362.641 117.492L364.797 117.003L366.637 116.17L368.017 114.964L369.11 112.091L369.829 108.845L370.231 102.64L370.059 76.4116L368.334 74.1996L366.896 71.6716L366.177 69.6894L365.573 66.1847V63.7141L366.177 60.3243L367.011 58.5145L368.132 57.0207L370.174 55.0672V48.4887L370.346 43.3752L370.059 38.4628L368.736 33.2057L367.73 31.5683L367.011 30.9363L365.2 30.0745L363.072 29.5861L358.558 29.1265Z" fill="#111111"/>
<path d="M531.707 3.12793C542.384 11.229 553.051 11.229 563.709 3.12793V10.4247C553.032 18.5258 542.365 18.5258 531.707 10.4247V3.12793ZM602.209 23.9839V29.7294L597.666 30.3326L595.337 30.9934L593.238 32.1712L591.8 33.7512L591.283 34.8716L590.449 38.6923V44.6101L590.938 109.39L591.57 111.832L592.663 113.958L594.1 115.566L596.084 116.658L598.528 117.261L602.352 117.606V122.921L602.122 123.179L598.298 122.921L569.287 123.179V118.87L569.459 117.606L577.05 115.768L577.826 115.049L578.545 114.159L579.379 111.976L580.127 108.011L581.363 43.6334L512.356 123.524L511.58 124.242H505.427C504.988 124.232 504.565 124.081 504.219 123.811L503.385 39.1806L502.724 35.1588L502.264 34.0385L501.056 32.1712L499.446 30.7061L498.44 30.2178L497.146 29.9018L492.316 29.7294V25.3628L492.517 23.9839H525.324V29.7294L520.666 30.2178L518.337 30.9934L516.382 32.2287L515.117 34.0385L514.196 36.2505L513.42 40.0712L512.816 92.5847L513.018 93.705L573.025 24.7596L573.858 24.0414L575.296 24.2425L602.209 23.9839Z" fill="#111111"/>
<path d="M721.418 71.3845V31.5973C720.667 31.3869 719.896 31.2616 719.117 31.2238H716.99C711.62 30.9685 706.31 32.4384 701.837 35.418C698.003 38.195 696.087 42.9828 696.087 49.7816C696.087 57.6529 698.502 63.2164 703.332 66.4722C708.72 69.911 715.029 71.6248 721.418 71.3845ZM695.023 72.8784C689.721 70.8692 685.11 67.379 681.739 62.8238C678.464 58.1418 676.781 52.5327 676.937 46.8227C676.937 38.2046 679.812 32.4591 685.994 28.9256C692.091 25.5369 698.944 23.7386 705.92 23.6973H706.811C708.795 23.6973 710.808 23.6973 712.878 23.6973C714.948 23.6973 716.961 23.8696 718.916 23.8696L724.954 24.1569C726.996 24.1569 729.008 24.1569 731.021 24.1569C734.356 24.1569 737.778 24.1569 741.2 24.1569C744.621 24.1569 748.129 23.9271 751.608 23.7547V29.1267C746.318 29.1267 742.982 30.362 741.89 32.8325C740.492 36.3248 739.874 40.0796 740.078 43.8351L740.251 50.586V96.2049L740.078 102.755C739.908 106.43 740.475 110.103 741.746 113.556C742.839 116.084 746.145 117.377 751.608 117.377V123.122H748.934L746.231 122.921L738.152 122.605C735.449 122.605 732.775 122.605 730.13 122.605H725.127C723.459 122.605 721.792 122.605 720.095 122.605L715.092 122.921L710.118 123.209V117.463C715.466 117.463 718.744 116.17 719.779 113.642C721.038 110.187 721.595 106.514 721.418 102.841V78.2504H712.361L693.24 108.989C692.234 110.54 691.342 111.861 690.566 113.24C689.83 114.39 689.024 115.494 688.151 116.544C686.507 118.753 684.331 120.512 681.825 121.657C678.651 122.769 675.294 123.267 671.934 123.122H658.19V117.377C659.886 117.342 661.556 116.956 663.095 116.244C664.634 115.532 666.009 114.509 667.132 113.24C669.826 110.48 672.261 107.48 674.407 104.277C675.5 102.582 676.563 100.916 677.57 99.25C678.576 97.5838 679.467 96.1762 680.301 94.9696L695.023 72.8784Z" fill="#111111"/>
</svg>
